<?xml version="1.0" encoding="UTF-8" standalone="no"?>
<!-- Generator: Adobe Illustrator 13.0.0, SVG Export Plug-In . SVG Version: 6.00 Build 14948)  -->

<svg
   xmlns:dc="http://purl.org/dc/elements/1.1/"
   xmlns:cc="http://creativecommons.org/ns#"
   xmlns:rdf="http://www.w3.org/1999/02/22-rdf-syntax-ns#"
   xmlns:svg="http://www.w3.org/2000/svg"
   xmlns="http://www.w3.org/2000/svg"
   xmlns:sodipodi="http://sodipodi.sourceforge.net/DTD/sodipodi-0.dtd"
   xmlns:inkscape="http://www.inkscape.org/namespaces/inkscape"
   version="1.1"
   id="Layer_1"
   x="0px"
   y="0px"
   width="600px"
   height="600px"
   viewBox="0 0 600 600"
   enable-background="new 0 0 600 600"
   xml:space="preserve"
   inkscape:version="0.48.4 r9939"
   sodipodi:docname="Accept.svg"><metadata
   id="metadata3023"><rdf:RDF><cc:Work
       rdf:about=""><dc:format>image/svg+xml</dc:format><dc:type
         rdf:resource="http://purl.org/dc/dcmitype/StillImage" /><dc:title></dc:title></cc:Work></rdf:RDF></metadata><defs
   id="defs3021" /><sodipodi:namedview
   pagecolor="#ffffff"
   bordercolor="#666666"
   borderopacity="1"
   objecttolerance="10"
   gridtolerance="10"
   guidetolerance="10"
   inkscape:pageopacity="0"
   inkscape:pageshadow="2"
   inkscape:window-width="1920"
   inkscape:window-height="1019"
   id="namedview3019"
   showgrid="false"
   inkscape:zoom="1.355"
   inkscape:cx="300"
   inkscape:cy="306.30744"
   inkscape:window-x="-9"
   inkscape:window-y="-9"
   inkscape:window-maximized="1"
   inkscape:current-layer="Layer_1" />

<path
   sodipodi:type="arc"
   style="fill:#000000;fill-opacity:1;stroke:none;display:inline"
   id="path3035"
   sodipodi:cx="398.1011"
   sodipodi:cy="508.59708"
   sodipodi:rx="303.34882"
   sodipodi:ry="303.34882"
   d="m 701.44992,508.59708 a 303.34882,303.34882 0 1 1 -606.697631,0 303.34882,303.34882 0 1 1 606.697631,0 z"
   transform="matrix(-0.6349687,-0.75672624,0.75672624,-0.6349687,168.28199,924.56579)" /><path
   style="fill:#ffffff;stroke:none;display:inline"
   d="m 346.23322,301.33664 c -0.65571,241.09597 -0.65571,241.09597 -0.65571,241.09597 0,0 2.24412,45.3319 -45.09298,41.3201 -47.33706,-4.0118 -43.66729,-47.65449 -43.66729,-47.65449 l 0.65574,-241.09597 z"
   id="path3877"
   inkscape:connector-curvature="0" /><path
   style="fill:#ffffff;stroke:none;display:inline"
   d="m 257.34093,300.18123 c 0.65569,-241.095967 0.65569,-241.095967 0.65569,-241.095967 0,0 -2.24409,-45.331861 45.09297,-41.320101 47.3371,4.011769 43.66731,47.65449 43.66731,47.65449 l -0.65573,241.095938 z"
   id="path3877-2-3"
   inkscape:connector-curvature="0" /><path
   style="fill:#ffffff;stroke:none;display:inline"
   d="m 298.63772,256.01357 c 241.09596,0.65572 241.09596,0.65572 241.09596,0.65572 0,0 45.33188,-2.24413 41.32011,45.09298 -4.01177,47.33707 -47.65449,43.66728 -47.65449,43.66728 l -241.09597,-0.65573 z"
   id="path3877-3"
   inkscape:connector-curvature="0" /><path
   style="fill:#ffffff;stroke:none;display:inline"
   d="M 297.48232,344.90586 C 56.386346,344.25017 56.386346,344.25017 56.386346,344.25017 c 0,0 -45.331856,2.2441 -41.320106,-45.09298 4.01179,-47.33709 47.654496,-43.66729 47.654496,-43.66729 l 241.095944,0.65573 z"
   id="path3877-2-3-6"
   inkscape:connector-curvature="0" /></svg>