<?xml version="1.0" encoding="UTF-8" standalone="no"?>
<!-- Generator: Adobe Illustrator 13.0.0, SVG Export Plug-In . SVG Version: 6.00 Build 14948)  -->

<svg
   xmlns:dc="http://purl.org/dc/elements/1.1/"
   xmlns:cc="http://creativecommons.org/ns#"
   xmlns:rdf="http://www.w3.org/1999/02/22-rdf-syntax-ns#"
   xmlns:svg="http://www.w3.org/2000/svg"
   xmlns="http://www.w3.org/2000/svg"
   xmlns:sodipodi="http://sodipodi.sourceforge.net/DTD/sodipodi-0.dtd"
   xmlns:inkscape="http://www.inkscape.org/namespaces/inkscape"
   version="1.1"
   id="Layer_1"
   x="0px"
   y="0px"
   width="600px"
   height="600px"
   viewBox="0 0 600 600"
   enable-background="new 0 0 600 600"
   xml:space="preserve"
   inkscape:version="0.48.4 r9939"
   sodipodi:docname="Accept.svg"><metadata
   id="metadata3023"><rdf:RDF><cc:Work
       rdf:about=""><dc:format>image/svg+xml</dc:format><dc:type
         rdf:resource="http://purl.org/dc/dcmitype/StillImage" /><dc:title></dc:title></cc:Work></rdf:RDF></metadata><defs
   id="defs3021" /><sodipodi:namedview
   pagecolor="#ffffff"
   bordercolor="#666666"
   borderopacity="1"
   objecttolerance="10"
   gridtolerance="10"
   guidetolerance="10"
   inkscape:pageopacity="0"
   inkscape:pageshadow="2"
   inkscape:window-width="1920"
   inkscape:window-height="1019"
   id="namedview3019"
   showgrid="false"
   inkscape:zoom="1.355"
   inkscape:cx="303.9643"
   inkscape:cy="333.2353"
   inkscape:window-x="-9"
   inkscape:window-y="-9"
   inkscape:window-maximized="1"
   inkscape:current-layer="Layer_1" />

<path
   sodipodi:type="arc"
   style="fill:#000000;fill-opacity:1;stroke:none;display:inline"
   id="path3035"
   sodipodi:cx="398.1011"
   sodipodi:cy="508.59708"
   sodipodi:rx="303.34882"
   sodipodi:ry="303.34882"
   d="m 701.44992,508.59708 a 303.34882,303.34882 0 1 1 -606.697631,0 303.34882,303.34882 0 1 1 606.697631,0 z"
   transform="matrix(-0.6349687,-0.75672624,0.75672624,-0.6349687,167.54398,923.82778)" /><path
   style="fill:#ffffff;stroke:none;display:inline"
   d="m 305.80224,333.45459 c -192.87677,-0.52457 -192.87677,-0.52457 -192.87677,-0.52457 0,0 -36.26548,1.7953 -33.05607,-36.07438 3.20942,-37.86965 38.12358,-34.93383 38.12358,-34.93383 l 192.87678,0.52458 z"
   id="path3877-3"
   inkscape:connector-curvature="0" /><path
   style="fill:#ffffff;stroke:none;display:inline"
   d="m 306.72657,262.34076 c 192.87678,0.52455 192.87678,0.52455 192.87678,0.52455 0,0 36.26549,-1.79528 33.05608,36.07439 -3.20943,37.86966 -38.12359,34.93383 -38.12359,34.93383 l -192.87676,-0.52457 z"
   id="path3877-2-3-6"
   inkscape:connector-curvature="0" /><path
   style="fill:#ffffff;stroke:none;display:inline"
   d="M 305.80224,208.98727 C 112.92548,208.4627 112.92548,208.4627 112.92548,208.4627 c 0,0 -36.26549,1.79529 -33.05608,-36.07439 3.20942,-37.86965 38.12357,-34.93383 38.12357,-34.93383 l 192.87679,0.52458 z"
   id="path3877-3-2"
   inkscape:connector-curvature="0" /><path
   style="fill:#ffffff;stroke:none;display:inline"
   d="m 306.72657,137.87343 c 192.87678,0.52455 192.87678,0.52455 192.87678,0.52455 0,0 36.26549,-1.79528 33.05608,36.07439 -3.20943,37.86967 -38.12359,34.93383 -38.12359,34.93383 l -192.87676,-0.52457 z"
   id="path3877-2-3-6-4"
   inkscape:connector-curvature="0" /><path
   style="fill:#ffffff;stroke:none;display:inline"
   d="m 302.83873,462.8611 c -192.87676,-0.52457 -192.87676,-0.52457 -192.87676,-0.52457 0,0 -36.265498,1.7953 -33.056078,-36.07438 3.20941,-37.86965 38.123588,-34.93383 38.123588,-34.93383 l 192.87677,0.52458 z"
   id="path3877-3-5"
   inkscape:connector-curvature="0" /><path
   style="fill:#ffffff;stroke:none;display:inline"
   d="m 303.76306,391.74727 c 192.87678,0.52455 192.87678,0.52455 192.87678,0.52455 0,0 36.26549,-1.79528 33.05608,36.07438 -3.20943,37.86967 -38.12359,34.93384 -38.12359,34.93384 l -192.87676,-0.52458 z"
   id="path3877-2-3-6-8"
   inkscape:connector-curvature="0" /></svg>