<?xml version="1.0" encoding="UTF-8" standalone="no"?>
<!-- Generator: Adobe Illustrator 13.0.0, SVG Export Plug-In . SVG Version: 6.00 Build 14948)  -->

<svg
   xmlns:dc="http://purl.org/dc/elements/1.1/"
   xmlns:cc="http://creativecommons.org/ns#"
   xmlns:rdf="http://www.w3.org/1999/02/22-rdf-syntax-ns#"
   xmlns:svg="http://www.w3.org/2000/svg"
   xmlns="http://www.w3.org/2000/svg"
   xmlns:sodipodi="http://sodipodi.sourceforge.net/DTD/sodipodi-0.dtd"
   xmlns:inkscape="http://www.inkscape.org/namespaces/inkscape"
   version="1.1"
   id="Layer_1"
   x="0px"
   y="0px"
   width="600px"
   height="600px"
   viewBox="0 0 600 600"
   enable-background="new 0 0 600 600"
   xml:space="preserve"
   inkscape:version="0.48.4 r9939"
   sodipodi:docname="Accept.svg"><metadata
   id="metadata3023"><rdf:RDF><cc:Work
       rdf:about=""><dc:format>image/svg+xml</dc:format><dc:type
         rdf:resource="http://purl.org/dc/dcmitype/StillImage" /><dc:title></dc:title></cc:Work></rdf:RDF></metadata><defs
   id="defs3021" /><sodipodi:namedview
   pagecolor="#ffffff"
   bordercolor="#666666"
   borderopacity="1"
   objecttolerance="10"
   gridtolerance="10"
   guidetolerance="10"
   inkscape:pageopacity="0"
   inkscape:pageshadow="2"
   inkscape:window-width="1920"
   inkscape:window-height="1019"
   id="namedview3019"
   showgrid="false"
   inkscape:zoom="1.355"
   inkscape:cx="300"
   inkscape:cy="247.84776"
   inkscape:window-x="-9"
   inkscape:window-y="-9"
   inkscape:window-maximized="1"
   inkscape:current-layer="Layer_1" />

<path
   style="fill:#000000;stroke:none;display:inline"
   d="M 248.02358,222.24939 C 481.57373,17.748694 481.57373,17.748694 481.57373,17.748694 c 0,0 41.62601,-40.464571 83.48149,3.208928 41.85551,43.673548 -3.85191,77.671563 -3.85191,77.671563 L 327.65313,303.12982 z"
   id="path3877-2-3"
   inkscape:connector-curvature="0" /><path
   style="fill:#000000;stroke:none;display:inline"
   d="M 334.67266,297.13339 C 101.1225,501.63407 101.1225,501.63407 101.1225,501.63407 c 0,0 -41.626001,40.46456 -83.481485,-3.20891 -41.855514,-43.67356 3.851917,-77.67156 3.851917,-77.67156 L 255.04311,216.25296 z"
   id="path3877-2-3-1"
   inkscape:connector-curvature="0" /><path
   style="fill:#000000;stroke:none;display:inline"
   d="M 264.58935,488.40957 C 498.13949,283.90888 498.13949,283.90888 498.13949,283.90888 c 0,0 41.62601,-40.46457 83.4815,3.20893 41.8555,43.67355 -3.85191,77.67156 -3.85191,77.67156 L 344.21889,569.29005 z"
   id="path3877-2-3-0"
   inkscape:connector-curvature="0" /><path
   style="fill:#000000;stroke:none;display:inline"
   d="M 563.57756,377.0126 C 330.02741,581.51332 330.02741,581.51332 330.02741,581.51332 c 0,0 -41.62601,40.46455 -83.48149,-3.20894 -41.8555,-43.6736 3.85192,-77.6716 3.85192,-77.6716 l 233.55017,-204.5006 z"
   id="path3877-2-3-1-9"
   inkscape:connector-curvature="0" /></svg>