<?xml version="1.0" encoding="UTF-8" standalone="no"?>
<!-- Generator: Adobe Illustrator 13.0.0, SVG Export Plug-In . SVG Version: 6.00 Build 14948)  -->

<svg
   xmlns:dc="http://purl.org/dc/elements/1.1/"
   xmlns:cc="http://creativecommons.org/ns#"
   xmlns:rdf="http://www.w3.org/1999/02/22-rdf-syntax-ns#"
   xmlns:svg="http://www.w3.org/2000/svg"
   xmlns="http://www.w3.org/2000/svg"
   xmlns:sodipodi="http://sodipodi.sourceforge.net/DTD/sodipodi-0.dtd"
   xmlns:inkscape="http://www.inkscape.org/namespaces/inkscape"
   version="1.1"
   id="Layer_1"
   x="0px"
   y="0px"
   width="600px"
   height="600px"
   viewBox="0 0 600 600"
   enable-background="new 0 0 600 600"
   xml:space="preserve"
   inkscape:version="0.48.4 r9939"
   sodipodi:docname="Accept.svg"><metadata
   id="metadata3023"><rdf:RDF><cc:Work
       rdf:about=""><dc:format>image/svg+xml</dc:format><dc:type
         rdf:resource="http://purl.org/dc/dcmitype/StillImage" /><dc:title></dc:title></cc:Work></rdf:RDF></metadata><defs
   id="defs3021" /><sodipodi:namedview
   pagecolor="#ffffff"
   bordercolor="#666666"
   borderopacity="1"
   objecttolerance="10"
   gridtolerance="10"
   guidetolerance="10"
   inkscape:pageopacity="0"
   inkscape:pageshadow="2"
   inkscape:window-width="1920"
   inkscape:window-height="1019"
   id="namedview3019"
   showgrid="false"
   inkscape:zoom="1.355"
   inkscape:cx="300"
   inkscape:cy="240.95941"
   inkscape:window-x="-9"
   inkscape:window-y="-9"
   inkscape:window-maximized="1"
   inkscape:current-layer="Layer_1" />

<path
   sodipodi:type="arc"
   style="fill:#000000;fill-opacity:1;stroke:none;display:inline"
   id="path3035"
   sodipodi:cx="398.1011"
   sodipodi:cy="508.59708"
   sodipodi:rx="303.34882"
   sodipodi:ry="303.34882"
   d="m 701.44992,508.59708 a 303.34882,303.34882 0 1 1 -606.697631,0 303.34882,303.34882 0 1 1 606.697631,0 z"
   transform="matrix(-0.6349687,-0.75765807,0.75672624,-0.63575059,168.28199,925.70341)" /><path
   style="fill:#ffffff;stroke:none;display:inline"
   d="M 266.64404,270.21048 C 437.58828,99.984196 437.58828,99.984196 437.58828,99.984196 c 0,0 30.46764,-33.682721 61.10328,2.671114 30.63561,36.35382 -2.81937,64.65376 -2.81937,64.65376 L 324.92792,337.53534 z"
   id="path3877"
   inkscape:connector-curvature="0" /><path
   style="fill:#ffffff;stroke:none;display:inline"
   d="M 328.68338,333.96222 C 157.73914,504.18853 157.73914,504.18853 157.73914,504.18853 c 0,0 -30.46765,33.68271 -61.10327,-2.67111 -30.635628,-36.35384 2.819373,-64.65377 2.819373,-64.65377 L 270.39948,266.63738 z"
   id="path3877-2-3"
   inkscape:connector-curvature="0" /><path
   style="fill:#ffffff;stroke:none;display:inline"
   d="M 268.25089,335.99474 C 98.233961,164.84 98.233961,164.84 98.233961,164.84 c 0,0 -33.641306,-30.50517 2.667829,-61.17853 36.30911,-30.673329 64.57424,2.82285 64.57424,2.82285 l 170.01692,171.15476 z"
   id="path3877-3"
   inkscape:connector-curvature="0" /><path
   style="fill:#ffffff;stroke:none;display:inline"
   d="m 331.92423,273.87899 c 170.01695,171.15474 170.01695,171.15474 170.01695,171.15474 0,0 33.64128,30.50517 -2.66782,61.17852 -36.30914,30.67334 -64.57427,-2.82285 -64.57427,-2.82285 L 264.68218,332.23467 z"
   id="path3877-2-3-6"
   inkscape:connector-curvature="0" /></svg>