<?xml version="1.0" encoding="UTF-8" standalone="no"?>
<!-- Generator: Adobe Illustrator 13.0.0, SVG Export Plug-In . SVG Version: 6.00 Build 14948)  -->

<svg
   xmlns:dc="http://purl.org/dc/elements/1.1/"
   xmlns:cc="http://creativecommons.org/ns#"
   xmlns:rdf="http://www.w3.org/1999/02/22-rdf-syntax-ns#"
   xmlns:svg="http://www.w3.org/2000/svg"
   xmlns="http://www.w3.org/2000/svg"
   xmlns:sodipodi="http://sodipodi.sourceforge.net/DTD/sodipodi-0.dtd"
   xmlns:inkscape="http://www.inkscape.org/namespaces/inkscape"
   version="1.1"
   id="Layer_1"
   x="0px"
   y="0px"
   width="600px"
   height="600px"
   viewBox="0 0 600 600"
   enable-background="new 0 0 600 600"
   xml:space="preserve"
   inkscape:version="0.48.4 r9939"
   sodipodi:docname="Accept.svg"><metadata
   id="metadata3023"><rdf:RDF><cc:Work
       rdf:about=""><dc:format>image/svg+xml</dc:format><dc:type
         rdf:resource="http://purl.org/dc/dcmitype/StillImage" /><dc:title></dc:title></cc:Work></rdf:RDF></metadata><defs
   id="defs3021" /><sodipodi:namedview
   pagecolor="#ffffff"
   bordercolor="#666666"
   borderopacity="1"
   objecttolerance="10"
   gridtolerance="10"
   guidetolerance="10"
   inkscape:pageopacity="0"
   inkscape:pageshadow="2"
   inkscape:window-width="1920"
   inkscape:window-height="1019"
   id="namedview3019"
   showgrid="false"
   inkscape:zoom="1.355"
   inkscape:cx="300"
   inkscape:cy="359.04059"
   inkscape:window-x="-9"
   inkscape:window-y="-9"
   inkscape:window-maximized="1"
   inkscape:current-layer="Layer_1" />

<path
   sodipodi:type="arc"
   style="fill:#000000;fill-opacity:1;stroke:none;display:inline"
   id="path3035"
   sodipodi:cx="398.1011"
   sodipodi:cy="508.59708"
   sodipodi:rx="303.34882"
   sodipodi:ry="303.34882"
   d="m 701.44992,508.59708 a 303.34882,303.34882 0 1 1 -606.697631,0 303.34882,303.34882 0 1 1 606.697631,0 z"
   transform="matrix(-0.63575059,-0.75765807,0.75765807,-0.63575059,167.75034,924.9654)" /><path
   style="fill:#ffffff;stroke:none;display:inline"
   d="m 297.8698,256.84746 c 241.39283,0.65652 241.39283,0.65652 241.39283,0.65652 0,0 45.38769,-2.24687 41.37099,45.14852 -4.01671,47.39535 -47.71317,43.72106 -47.71317,43.72106 l -241.39284,-0.65655 z"
   id="path3877"
   inkscape:connector-curvature="0" /><path
   style="fill:#ffffff;stroke:none;display:inline"
   d="m 296.71296,345.84922 c -241.392841,-0.6565 -241.392841,-0.6565 -241.392841,-0.6565 0,0 -45.3876851,2.24686 -41.37099,-45.1485 4.016717,-47.39538 47.713179,-43.72107 47.713179,-43.72107 l 241.392822,0.65652 z"
   id="path3877-2-3"
   inkscape:connector-curvature="0" /></svg>