<?xml version="1.0" encoding="UTF-8" standalone="no"?>
<!-- Generator: Adobe Illustrator 13.0.0, SVG Export Plug-In . SVG Version: 6.00 Build 14948)  -->

<svg
   xmlns:dc="http://purl.org/dc/elements/1.1/"
   xmlns:cc="http://creativecommons.org/ns#"
   xmlns:rdf="http://www.w3.org/1999/02/22-rdf-syntax-ns#"
   xmlns:svg="http://www.w3.org/2000/svg"
   xmlns="http://www.w3.org/2000/svg"
   xmlns:sodipodi="http://sodipodi.sourceforge.net/DTD/sodipodi-0.dtd"
   xmlns:inkscape="http://www.inkscape.org/namespaces/inkscape"
   version="1.1"
   id="Layer_1"
   x="0px"
   y="0px"
   width="600px"
   height="600px"
   viewBox="0 0 600 600"
   enable-background="new 0 0 600 600"
   xml:space="preserve"
   inkscape:version="0.48.4 r9939"
   sodipodi:docname="Accept.svg"><metadata
   id="metadata3023"><rdf:RDF><cc:Work
       rdf:about=""><dc:format>image/svg+xml</dc:format><dc:type
         rdf:resource="http://purl.org/dc/dcmitype/StillImage" /><dc:title></dc:title></cc:Work></rdf:RDF></metadata><defs
   id="defs3021" /><sodipodi:namedview
   pagecolor="#ffffff"
   bordercolor="#666666"
   borderopacity="1"
   objecttolerance="10"
   gridtolerance="10"
   guidetolerance="10"
   inkscape:pageopacity="0"
   inkscape:pageshadow="2"
   inkscape:window-width="1920"
   inkscape:window-height="1019"
   id="namedview3019"
   showgrid="false"
   inkscape:zoom="1.355"
   inkscape:cx="300"
   inkscape:cy="359.04059"
   inkscape:window-x="-9"
   inkscape:window-y="-9"
   inkscape:window-maximized="1"
   inkscape:current-layer="Layer_1" />

<path
   sodipodi:type="arc"
   style="fill:#000000;fill-opacity:1;stroke:none;display:inline"
   id="path3035"
   sodipodi:cx="398.1011"
   sodipodi:cy="508.59708"
   sodipodi:rx="303.34882"
   sodipodi:ry="303.34882"
   d="m 701.44992,508.59708 a 303.34882,303.34882 0 1 1 -606.697631,0 303.34882,303.34882 0 1 1 606.697631,0 z"
   transform="matrix(-0.6349687,-0.75765807,0.75672624,-0.63575059,167.54398,924.9654)" /><path
   style="fill:#ffffff;stroke:none;display:inline"
   d="m 334.31431,371.87086 c -0.47212,173.80285 -0.47212,173.80285 -0.47212,173.80285 0,0 1.61577,32.67919 -32.46695,29.7871 -34.08268,-2.89199 -31.44044,-34.35347 -31.44044,-34.35347 l 0.47212,-173.80285 z"
   id="path3877-3-5"
   inkscape:connector-curvature="0" /><path
   style="fill:#ffffff;stroke:none;display:inline"
   d="m 270.31185,371.03795 c 0.4721,-173.80286 0.4721,-173.80286 0.4721,-173.80286 0,0 -1.61575,-32.67914 32.46695,-29.78711 34.0827,2.89204 31.44045,34.35349 31.44045,34.35349 l -0.47211,173.80284 z"
   id="path3877-2-3-6-8"
   inkscape:connector-curvature="0" /><path
   sodipodi:type="arc"
   style="fill:#ffffff;fill-opacity:1;stroke:none;display:inline"
   id="path6074"
   sodipodi:cx="314.5"
   sodipodi:cy="99.36219"
   sodipodi:rx="38.5"
   sodipodi:ry="45"
   d="m 353,99.36219 a 38.5,45 0 1 1 -77,0 38.5,45 0 1 1 77,0 z"
   transform="matrix(0.98783595,0,0,0.98905235,-8.8552528,-5.7327557)" /></svg>