<?xml version="1.0" encoding="utf-8"?>
<!-- Generator: Adobe Illustrator 22.1.0, SVG Export Plug-In . SVG Version: 6.00 Build 0)  -->
<svg version="1.1" xmlns="http://www.w3.org/2000/svg" xmlns:xlink="http://www.w3.org/1999/xlink" x="0px" y="0px"
	 viewBox="0 0 314 314" style="enable-background:new 0 0 314 314;" xml:space="preserve">
<style type="text/css">
	.st0{fill:#27B783;}
	.st1{fill:#1F9976;}
	.st2{fill:#444444;}
	.st3{fill:#54CC9E;}
	.st4{fill:#23A57D;}
	.st5{fill:#D9534F;}
	.st6{fill:#5BC0DE;}
	.st7{fill:#333333;}
	.st8{fill:#F0AD4E;}
	.st9{fill:#5ABA6C;}
	.st10{fill:#868686;}
	.st11{fill:#8C8C8C;}
	.st12{fill:#929292;}
	.st13{fill:#64EDC9;}
	.st14{fill:#87DBBB;}
	.st15{fill:#85B7F0;}
	.st16{fill:#86C3F0;}
</style>
<g id="Calque_1">
</g>
<g id="Calque_2">
</g>
<g id="Calque_3">
	<g>
		<path class="st16" d="M171.2,163H18c-6.9,0-12.5-5.6-12.5-12.5V43.9c0-6.9,5.6-12.5,12.5-12.5h153.2c6.9,0,12.5,5.6,12.5,12.5
			v106.5C183.8,157.3,178.1,163,171.2,163z"/>
		<g>
			<path class="st2" d="M293.1,46.3v-0.4h-1.4H41.6h-1.4v0.4c-8.2,0.6-14.3,7.1-15.3,15v1.4v164.8c0,3.2,0.8,5.9,2.2,8.3
				c3.2,5.6,7.9,8.5,14.4,8.5h91.3v23h-17.3c-4.3,0-7.6,3.3-7.6,7.6c0,4.3,3.3,7.6,7.6,7.6h102.3c4.3,0,7.8-3.3,7.8-7.6
				c0-4.3-3.5-7.6-7.8-7.6h-17.3v-23h91.3c6.5,0,11.3-2.8,14.4-8.5c1.4-2.5,2.4-5.3,2.4-8.3V62.7v-1.4
				C307.5,53.4,301,46.9,293.1,46.3z M293.1,62.7v164.8c0,1-0.4,1.4-1.4,1.4H41.6c-1,0-1.4-0.4-1.4-1.4V62.7v-1.4h252.9L293.1,62.7
				L293.1,62.7z"/>
		</g>
	</g>
</g>
</svg>
