<?xml version="1.0" encoding="UTF-8" standalone="no"?>
<svg
   xmlns:dc="http://purl.org/dc/elements/1.1/"
   xmlns:cc="http://creativecommons.org/ns#"
   xmlns:rdf="http://www.w3.org/1999/02/22-rdf-syntax-ns#"
   xmlns:svg="http://www.w3.org/2000/svg"
   xmlns="http://www.w3.org/2000/svg"
   version="1.1"
   id="Calque_1"
   x="0px"
   y="0px"
   viewBox="0 0 30 24"
   xml:space="preserve"
   width="30"
   height="24"><metadata
     id="metadata667"><rdf:RDF><cc:Work
         rdf:about=""><dc:format>image/svg+xml</dc:format><dc:type
           rdf:resource="http://purl.org/dc/dcmitype/StillImage" /><dc:title></dc:title></cc:Work></rdf:RDF></metadata><defs
     id="defs665" /><style
     type="text/css"
     id="style3">
	.st0{fill:#61C6EA;}
	.st1{fill:#1A181C;}
	.st2{fill:#B3B3B3;}
	.st3{fill:#0F71B4;}
	.st4{fill:#1885D5;}
	.st5{fill:#0A71B3;}
	.st6{fill:#0081C5;}
	.st7{fill:#333485;}
	.st8{fill:#1A181D;}
	.st9{fill:#7AB41D;}
	.st10{fill:#9B9C9E;}
	.st11{fill:#5BB6CB;}
	.st12{fill:#63B9CD;}
	.st13{fill:#83C2D5;}
	.st14{fill:#7BC1D2;}
	.st15{fill:#6DBCCF;}
	.st16{fill:#74BFD1;}
	.st17{fill:#6EBCCF;}
	.st18{fill:#68BBCE;}
	.st19{fill:#69BBCE;}
	.st20{fill:#8BC5D7;}
	.st21{fill:#7AC1D2;}
	.st22{fill:#92C8DA;}
	.st23{fill:#C2DCE9;}
	.st24{fill:#C1DBE8;}
	.st25{fill:#CCE1EC;}
	.st26{fill:#A8D1E0;}
	.st27{fill:#BAD9E6;}
	.st28{fill:#B3D6E4;}
	.st29{fill:#A3CFDF;}
	.st30{fill:#7FC2D3;}
	.st31{fill:#BBD9E6;}
	.st32{fill:#9DCDDD;}
	.st33{fill:#98CBDC;}
	.st34{fill:#86C3D6;}
	.st35{fill:#AFD4E2;}
	.st36{fill:#C8DFEB;}
	.st37{fill:#CBE0EC;}
	.st38{fill:#62B9CD;}
	.st39{fill:#C6DEEA;}
	.st40{fill:#8CC6D7;}
	.st41{fill:#97CBDB;}
	.st42{fill:#A1CFDE;}
	.st43{fill:#AFDAE4;}
	.st44{fill:#DFE9F3;}
	.st45{fill:#D1E3EE;}
	.st46{fill:#99CBDC;}
	.st47{fill:#C1DCE9;}
	.st48{fill:#CCE0EC;}
	.st49{fill:#DBE7F1;}
	.st50{fill:#8BC6D7;}
	.st51{fill:#5CB7CC;}
	.st52{fill:#C5DEEA;}
	.st53{fill:#D0E2ED;}
	.st54{fill:#5CB7CB;}
	.st55{fill:#5BB7CB;}
	.st56{fill:#D5E4EF;}
	.st57{fill:#64B9CD;}
	.st58{fill:#93C9DA;}
	.st59{fill:#7DC2D3;}
	.st60{fill:#9ACCDC;}
	.st61{fill:#84C3D5;}
	.st62{fill:#CEE1ED;}
	.st63{fill:#DEE8F2;}
	.st64{fill:#D2E3EE;}
	.st65{fill:#DAE7F1;}
	.st66{fill:#DAE6F1;}
	.st67{fill:#E1E9F4;}
	.st68{fill:#B6D7E5;}
	.st69{fill:#BCDAE7;}
	.st70{fill:#E5EBF5;}
	.st71{fill:#67BACE;}
	.st72{fill:#A7D1E0;}
	.st73{fill:#A2CEDE;}
	.st74{fill:#7CC2D3;}
	.st75{fill:#75BFD1;}
	.st76{fill:#70BDD0;}
	.st77{fill:#5EB7CC;}
	.st78{fill:#7AC1D3;}
	.st79{display:none;}
	.st80{display:inline;fill:#B3B3B3;}
</style><g
     class="st79"
     id="g473"
     style="display:none"
     transform="translate(0,-976)"><path
       class="st80"
       d="m 878.7,71.3 c 6.6,13.8 4.3,27.1 -2.7,40 -3.8,6.9 -8.7,12.9 -15,17.8 -2.2,1.7 -4.2,3.5 -5.8,5.9 -12.5,19.2 -33.7,25.8 -55.5,17.6 -0.3,-3 2.1,-3.1 3.9,-3.7 3,-1 5.9,-2.3 8.9,-3.3 20.7,-6.8 35,-21.5 47.6,-38.2 1.4,-1.9 2.4,-4.4 5.4,-4.1 2,2.2 0.6,4.6 0.4,6.9 7.8,-6.7 9.3,-11.1 5.6,-16.7 -6,-4.8 -6.9,-9.1 -2.8,-13.4 1.3,0.4 1.7,1.9 3.1,2.6 1.4,-2.8 3.1,-5.3 3.2,-8.6 -0.1,-2.2 1.3,-3.3 3.7,-2.8 z"
       id="path475"
       style="display:inline;fill:#b3b3b3" /><path
       class="st80"
       d="m 865.4,103.6 c -6.6,7 -11.8,15 -18.7,21.8 -12.2,12 -26.4,20.3 -42.8,24.9 -1.6,0.5 -3.3,0.5 -4.1,2.3 -3.6,-1.2 -7.4,-0.9 -11.2,-1.2 -1,-3.7 2.1,-3.2 3.9,-3.6 12.9,-2.9 25.2,-7.2 36.3,-14.4 2.2,-1.4 4.4,-2.7 6.3,-4.5 0.5,-0.6 1.1,-1.1 1.8,-1.4 2.1,-0.7 3.8,-1.8 4.8,-3.9 0.3,-0.4 0.7,-0.7 1.1,-1 6.6,-5.1 10.6,-12.5 16.2,-18.4 2,-1.4 2.6,-3.6 3.8,-5.6 0.6,-0.7 1.3,-1 2.2,-0.8 1.3,0.5 1.6,1.6 1.8,2.8 -0.1,1.1 -0.3,2.2 -1.4,3 z"
       id="path477"
       style="display:inline;fill:#b3b3b3" /><path
       class="st80"
       d="m 854.2,35.6 c 3,2.8 5.7,5.9 6.6,10.1 1.6,14.3 -1.1,27.9 -7.1,40.9 -1,2.1 -1.5,5.8 -5.7,4.1 -1.4,-2.5 -2.1,-5.2 -1.4,-8.1 2.3,-3.6 2.4,-7.9 3.5,-11.9 4,-9.6 2.7,-19.7 2.3,-29.6 0.1,-1.9 -1.4,-4.5 1.8,-5.5 z"
       id="path479"
       style="display:inline;fill:#b3b3b3" /><path
       class="st80"
       d="m 848.7,90 c 2.3,1.4 2.2,-1 2.7,-1.9 5.4,-10.2 7.6,-21.3 8.5,-32.8 0.3,-3.2 -1.1,-6.6 0.9,-9.7 1.2,2.5 2.4,4.9 3.6,7.4 1.5,2.9 1.6,6 1.2,9.2 -1.5,12.3 -5.2,23.8 -11.5,34.5 -1.3,2.1 -2.3,4.8 -5.5,4.8 -2.3,-3 -1.4,-6.5 -1.8,-9.8 0.3,-0.9 0.8,-1.6 1.9,-1.7 z"
       id="path481"
       style="display:inline;fill:#b3b3b3" /><path
       class="st80"
       d="m 867.8,56.4 c 2.2,1.6 4.1,3.5 5.4,5.9 -1.4,6.1 -0.2,13 -5.6,17.9 -0.5,0.4 -0.4,1 -0.4,1.6 0.4,12.8 -8.4,21.2 -15.1,30.6 -1.8,2.6 -2.9,6.8 -7.6,6.1 -1.6,-1.6 -0.6,-3.2 -0.1,-4.9 0.6,-1.3 1,-2.7 1.7,-4 11.5,-14.2 18.7,-30.3 20.2,-48.7 0.1,-1.6 0,-3.3 1.5,-4.5 z"
       id="path483"
       style="display:inline;fill:#b3b3b3" /><path
       class="st80"
       d="m 760.6,144.6 c -3.3,-1.7 -6.8,-3.1 -9.1,-6.2 1.1,-3.9 4,-1.8 5.8,-1.4 14.6,3.1 29,2.6 43.3,-1.4 1.3,-0.3 2.4,-0.9 3.6,-1.4 1.7,-0.7 3.6,-0.8 5.3,-1.4 0.6,-0.2 1.2,-0.3 1.8,-0.4 1.9,-0.1 3.8,-0.2 5.2,1.3 -0.2,4.4 -3.8,4.9 -6.9,6 -15.9,5.6 -32.2,7.3 -49,4.9 z"
       id="path485"
       style="display:inline;fill:#b3b3b3" /><path
       class="st80"
       d="m 760.6,144.6 c 0.1,-0.8 0.5,-1.7 1.3,-1.6 16.4,2.6 32.2,0.4 47.9,-4.8 2.7,-0.9 5.2,-1.8 6.6,-4.5 0.2,-0.9 0.7,-1.5 1.5,-1.9 1.8,-0.7 3.8,-0.7 5.7,-1.3 1.5,-0.2 2.9,-0.2 4.1,0.9 -0.2,4.3 -4,5.3 -6.7,6.6 -10.1,5.1 -21.1,7.9 -32.2,9.9 -4.9,0.9 -9.8,1.5 -14.8,1.3 -4.7,-0.7 -9.2,-2.2 -13.4,-4.6 z"
       id="path487"
       style="display:inline;fill:#b3b3b3" /><path
       class="st80"
       d="m 867.8,56.4 c 0.2,18.7 -6.9,35 -17.3,50.1 -1,1.5 -2.6,2.5 -3.9,3.8 -2.1,-3 -0.5,-5.8 0.5,-8.7 0.5,-0.5 1,-0.6 1.6,-0.3 8.4,-9.4 11.8,-21 14.5,-32.9 1.2,-5.1 1.2,-10.2 1.2,-15.4 1.2,1.2 2.3,2.3 3.4,3.4 z"
       id="path489"
       style="display:inline;fill:#b3b3b3" /><path
       class="st80"
       d="m 844.5,118.1 c 4.1,-0.7 5.4,-4.4 7.3,-7.2 6.2,-9.2 12.8,-17.9 15.4,-29.5 1.4,-6.2 2.1,-13.4 6,-19.1 1.2,0.8 1.8,2 2.3,3.3 -0.5,4.1 -1.4,8.2 -2.5,12.2 -0.5,1.8 -0.8,4.7 -4.2,3.4 -2.6,5.5 -1.4,8.6 4.5,11.2 -0.7,3.8 -3.4,5.2 -6.9,5.7 -1,-1.3 -0.8,-2.6 -0.7,-2.9 -0.1,0.2 -0.2,1.8 -1.5,2.7 -0.4,0.4 -0.7,0.7 -1.1,1.1 -1.4,1.7 -2,3.9 -3.3,5.6 -5.8,6.2 -9.5,14.2 -17,18.9 -1.2,-2.2 -0.4,-4 1.7,-5.4 z"
       id="path491"
       style="display:inline;fill:#b3b3b3" /><path
       class="st80"
       d="m 774,149.2 c 5.5,-0.7 10.9,-2.1 16.5,-2.7 6.3,-0.7 12.4,-3.2 18.6,-5 6.9,-2 13.7,-4.2 18.5,-10 0.2,-0.9 0.8,-1.5 1.6,-1.9 2.4,-0.6 4.8,-2.1 7.3,-0.4 -10.3,9.4 -22.9,14.2 -36,18.1 -4,1.2 -8.8,0.4 -11.9,4.1 -5,-0.2 -9.8,-0.7 -14.6,-2.2 z"
       id="path493"
       style="display:inline;fill:#b3b3b3" /><path
       class="st80"
       d="m 854.2,35.6 c -1.3,1 -0.6,2.2 -0.5,3.5 1.3,9.6 1.4,19.2 -0.5,28.7 -0.3,1.6 -0.8,2.8 -2.3,3.5 -1.2,-0.6 -1.8,-1.7 -2.2,-2.9 -0.6,-2.5 -0.6,-5 -0.5,-7.6 0,-9.2 0,-18.3 -2.3,-27.3 -0.4,-1.6 -0.7,-3.3 0.5,-4.7 3.4,1.5 6.1,3.6 7.8,6.8 z"
       id="path495"
       style="display:inline;fill:#b3b3b3" /><path
       class="st80"
       d="m 805.2,134.9 c -7,4.1 -15,4.9 -22.8,5.5 -9.4,0.7 -18.8,0.1 -28,-2.5 -1.1,-0.3 -2.1,-0.7 -2.9,0.5 -1.9,-1.1 -3.4,-2.6 -4.4,-4.5 1.4,-3.9 4.3,-2 6.3,-1.3 10.1,3.2 20.5,3.1 30.9,3 1.3,0 2.5,-0.5 3.8,-0.8 3.5,-0.6 7.1,0 10.5,-1 2.4,-0.4 4.7,-0.8 6.6,1.1 z"
       id="path497"
       style="display:inline;fill:#b3b3b3" /><path
       class="st80"
       d="m 846.5,28.7 c 3.1,10.7 3.9,21.7 3.2,32.8 -3.4,0.2 -5.3,-1.8 -6.5,-4.6 -0.7,-8.6 -0.5,-17.4 -3.1,-25.8 -0.6,-2 -1.1,-5.2 3.1,-4.4 1.1,0.6 2.2,1.3 3.3,2 z"
       id="path499"
       style="display:inline;fill:#b3b3b3" /><path
       class="st80"
       d="m 790.7,22.2 c 3.4,0 6.7,0 10.1,-0.1 4.9,3.8 8.3,8.7 10.9,14.2 0.9,2 2,4 0.4,6.1 -3.7,0.9 -6.7,-0.5 -9.5,-2.7 -2.2,-5 -6.1,-8.7 -10.2,-12.2 -1.7,-1.1 -5,-2.3 -1.7,-5.3 z"
       id="path501"
       style="display:inline;fill:#b3b3b3" /><path
       class="st80"
       d="m 741.7,70.2 c 0.3,-3.7 -1,-7.6 1,-11.2 3.5,0.2 3.5,3.6 5.2,5.4 0.8,1.9 0.9,4 1.9,5.8 4.6,6 11.4,9.2 17.6,13.1 0.7,1.4 0.1,2.5 -0.8,3.6 -2.4,0.7 -4.8,1.6 -7.4,1.3 -6.7,-5.2 -13.8,-9.9 -17.5,-18 z"
       id="path503"
       style="display:inline;fill:#b3b3b3" /><path
       class="st80"
       d="m 754,36.7 c 8.1,-7.8 18.1,-11.4 28.9,-13.3 2.3,2.8 6.2,3.1 8.9,5.3 3.5,2.7 8.4,4.5 7.1,10.5 -0.7,0.9 -1.6,1.5 -2.9,1.2 -1.4,-0.6 -2.4,-1.8 -3.3,-2.9 -9.2,-11 -28,-9 -34.9,1.8 -0.9,1.4 -1.7,2.9 -3.6,3.2 -2.7,-1.8 0,-3.9 -0.2,-5.8 z"
       id="path505"
       style="display:inline;fill:#b3b3b3" /><path
       class="st80"
       d="m 818.7,21.2 c 3,0.2 6.1,-0.9 9,0.9 1.8,7.4 5.8,14.1 6.5,21.8 0.3,2.9 1.1,6.2 -3.1,7.2 -2.2,0 -4.1,-0.6 -5.1,-2.8 0.6,-7.6 -2.2,-14.4 -5.4,-21.1 -0.9,-1.9 -2.8,-3.5 -1.9,-6 z"
       id="path507"
       style="display:inline;fill:#b3b3b3" /><path
       class="st80"
       d="m 811.9,42.2 c -0.8,-6 -4.3,-10.7 -8,-15.2 -1.2,-1.5 -3.2,-2.5 -3.2,-4.9 2.2,0 4.5,0 6.7,0 7.2,4.4 12.8,15.5 11.3,22.5 -2.9,1.1 -5.2,0.4 -6.8,-2.4 z"
       id="path509"
       style="display:inline;fill:#b3b3b3" /><path
       class="st80"
       d="m 818.6,44.6 c -1,-8.8 -5.3,-16 -11.1,-22.4 3,-0.3 5.9,-0.7 8.9,-1 2.9,6.4 6.9,12.3 8.3,19.3 0.5,2.4 1.2,4.8 -1.4,6.5 -2.1,0.2 -4.2,0.3 -4.7,-2.4 z"
       id="path511"
       style="display:inline;fill:#b3b3b3" /><path
       class="st80"
       d="m 830.9,50.1 c 3.6,-1 2.2,-3.8 1.9,-5.9 -1.1,-6.7 -3.2,-13.1 -6.4,-19.1 -1,-1.8 -0.9,-2.7 1.2,-2.9 1.9,0.1 4,-0.5 5.6,1.1 1.2,7.5 4.7,14.5 5.3,22.2 0.2,2.8 1,5.5 -0.7,8.1 -3.3,0.8 -5.9,0.3 -6.9,-3.5 z"
       id="path513"
       style="display:inline;fill:#b3b3b3" /><path
       class="st80"
       d="m 788.5,136 c -12.1,2.5 -24.1,1.2 -35.9,-2.1 -1.7,-0.5 -3.7,-2.5 -5.5,0 -1.7,-1.1 -2.5,-2.8 -3.3,-4.6 1.5,-3.7 4.2,-1.7 6.3,-1.1 7.5,2.2 14.9,4.3 22.8,4 5.1,0.2 10.2,0.8 15.2,2.2 0.6,0.3 0.7,0.9 0.4,1.6 z"
       id="path515"
       style="display:inline;fill:#b3b3b3" /><path
       class="st80"
       d="m 741.7,70.2 c 5.2,6.6 12.1,11.6 17.8,17.8 -0.7,2.3 -2,3.7 -4.5,3.8 -4.6,-3.6 -9.4,-7.1 -13.2,-11.5 -0.1,-3.4 -0.1,-6.8 -0.1,-10.1 z"
       id="path517"
       style="display:inline;fill:#b3b3b3" /><path
       class="st80"
       d="m 837.6,53.4 c 0.1,-9.1 -2.1,-17.8 -5.3,-26.2 -0.6,-1.5 -2.5,-3.4 1,-4 1.5,0.1 3.2,-0.3 4.4,1.2 0.9,6.6 4.3,12.6 4.5,19.4 0.1,3.9 1.8,8.1 -2,11.4 -1.3,0 -2.6,0.1 -2.6,-1.8 z"
       id="path519"
       style="display:inline;fill:#b3b3b3" /><path
       class="st80"
       d="m 839.7,54.6 c 2.9,-8.1 0.2,-15.7 -2,-23.3 -0.7,-2.2 -3.4,-4.6 -0.1,-6.9 2,0.4 4,0.8 5.5,2.3 -2.8,0.5 -2.4,2.4 -1.7,4.2 3.2,8.7 3.1,17.8 2.9,26.8 -1,0.8 -1.9,0.3 -2.9,-0.1 -1,-0.7 -2.1,-1.4 -1.7,-3 z"
       id="path521"
       style="display:inline;fill:#b3b3b3" /><path
       class="st80"
       d="m 773.1,133.6 c -8,0.3 -15.6,-1.5 -23.2,-3.9 -1.8,-0.6 -3.9,-2.8 -6.1,-0.4 -1.9,-2.3 -3.4,-4.7 -3.5,-7.8 3.6,-1.7 6.6,1.2 10,1.3 6.4,3.2 12.7,6.3 19.6,8.3 1.4,0.3 3,0.6 3.2,2.5 z"
       id="path523"
       style="display:inline;fill:#b3b3b3" /><path
       class="st80"
       d="m 823.1,46.6 c 1.9,-5.7 -1.6,-10.1 -3.1,-15.1 -1.1,-3.5 -5.5,-5.8 -3.7,-10.3 0.8,0 1.5,0 2.3,0 3.8,5.7 6.3,11.9 8.1,18.4 0.8,2.8 1.6,5.6 -0.4,8.3 -0.3,0.6 -0.6,1.3 -1.4,1.4 -1.3,-0.4 -1.8,-1.4 -1.8,-2.7 z"
       id="path525"
       style="display:inline;fill:#b3b3b3" /><path
       class="st80"
       d="m 741.7,80.2 c 5.3,2.8 9.9,6.4 13.4,11.3 1.1,0.4 1.6,1.2 1.1,2.3 -0.7,0.8 -1.6,1.3 -2.6,1.5 -0.5,0.1 -1,0.1 -1.5,0 -4.7,-2.1 -8.3,-5.8 -12.6,-8.5 0.8,-2.2 1.5,-4.4 2.2,-6.6 z"
       id="path527"
       style="display:inline;fill:#b3b3b3" /><path
       class="st80"
       d="m 752.8,94.7 c 0.3,0 0.7,0 1,0 1.8,1.7 1.1,3.7 0.6,5.7 -0.9,5.4 -4.4,3.4 -7.5,2.6 -0.8,0 -1.6,0.1 -2.3,0 -0.5,-0.1 -0.9,-0.4 -1.3,-0.8 -0.7,-3.2 -4.2,-4.5 -5.1,-7.5 0.2,-1.9 -0.5,-4 1.1,-5.6 3.2,-0.7 4.1,2.4 6.3,3.6 2.3,1.2 4,4.2 7.2,2 z"
       id="path529"
       style="display:inline;fill:#b3b3b3" /><path
       class="st80"
       d="m 798.5,38.8 c -1.3,-7.4 -7.6,-9.3 -13.1,-11.9 -1.7,-0.8 -3.9,-0.8 -2.5,-3.5 2.7,0 5.1,-1.7 7.8,-1.1 -1.4,2.8 1.1,3.3 2.5,4.6 3.9,3.6 8.7,6.3 9.8,12.2 -1.5,1.1 -3,1.1 -4.5,-0.3 z"
       id="path531"
       style="display:inline;fill:#b3b3b3" /><path
       class="st80"
       d="m 754,36.7 c 1.9,1.9 -0.8,3.7 -0.1,5.5 1.9,2.8 0.1,5.9 0.6,8.8 -0.9,2.6 -2,4.9 -5.2,5 -5.8,-2.5 -2,-6.9 -2.1,-10.5 1.5,-3.5 4.3,-6 6.8,-8.8 z"
       id="path533"
       style="display:inline;fill:#b3b3b3" /><path
       class="st80"
       d="m 868.8,81.3 c 4.8,-2.3 2.7,-7.4 4.3,-11 0.7,-1.6 0.3,-3.7 2.3,-4.6 1.7,1.5 2.5,3.5 3.2,5.6 -4.4,2.4 -1.6,8.1 -5.1,11 -0.6,0.5 -0.6,1.7 -1.1,3 -1.9,-1 -2.6,-2.6 -3.6,-4 z"
       id="path535"
       style="display:inline;fill:#b3b3b3" /><path
       class="st80"
       d="m 747.2,45.6 c 1.6,1.1 0.9,2.5 0.4,3.9 -1,2.6 -0.1,4.6 1.9,6.2 0.7,3.3 -0.3,6.3 -2.3,8.9 -2.5,-1.1 -2.3,-4.3 -4.5,-5.7 0.4,-4.8 1.6,-9.4 4.5,-13.3 z"
       id="path537"
       style="display:inline;fill:#b3b3b3" /><path
       class="st80"
       d="m 750.3,123.7 c -3.7,0.8 -6.6,-1.7 -9.9,-2.2 -1.9,-2.7 -2.3,-5.7 -2.1,-8.9 2,-1.5 3.4,0.2 5,1 0.4,0.3 0.8,0.6 1.2,1 1.4,3.4 6.3,4.5 5.8,9.1 z"
       id="path539"
       style="display:inline;fill:#b3b3b3" /><path
       class="st80"
       d="m 752.8,94.7 c 0.2,3 -1.1,3.8 -3.5,2.1 -3.4,-2.4 -6.6,-5.1 -9.9,-7.7 0.1,-0.7 0.1,-1.5 0.2,-2.2 3.7,-0.8 5.2,2.6 7.8,4.1 1.8,1 3.6,2.4 5.4,3.7 z"
       id="path541"
       style="display:inline;fill:#b3b3b3" /><path
       class="st80"
       d="m 742.7,114.8 c -1.5,-0.6 -2.5,-2.4 -4.5,-2.2 0,0 0,0 0,0 -1.1,-1.7 0.1,-3.8 -0.9,-5.6 0,-1.5 0,-3 0,-4.4 6.8,1.3 8.5,5.2 5.4,12.2 z"
       id="path543"
       style="display:inline;fill:#b3b3b3" /><path
       class="st80"
       d="m 742.7,114.8 c 0.3,-5 0.5,-10 -5.4,-12.2 0,-0.8 0,-1.6 0,-2.3 3.6,-3.5 4.8,0.2 6.5,2.2 l 0.2,0.1 c 2.2,4.1 2.5,8.2 -0.3,12.2 -0.3,0 -0.6,0 -1,0 z"
       id="path545"
       style="display:inline;fill:#b3b3b3" /><path
       class="st80"
       d="m 743.8,102.5 c -2.1,-0.9 -3.6,-3.8 -6.5,-2.2 -0.2,-1.9 0,-3.8 0.9,-5.6 2.2,2.3 6.7,3.1 5.6,7.8 z"
       id="path547"
       style="display:inline;fill:#b3b3b3" /><path
       class="st80"
       d="m 737.3,107 c 1.6,1.6 0.8,3.7 0.9,5.6 -1.5,-1.7 -0.9,-3.7 -0.9,-5.6 z"
       id="path549"
       style="display:inline;fill:#b3b3b3" /><path
       class="st80"
       d="m 822.2,150 c -1.3,0.7 -2.4,0.7 -3.7,0 1.2,-1 2.4,-1 3.7,0 z"
       id="path551"
       style="display:inline;fill:#b3b3b3" /><path
       class="st80"
       d="m 830.9,122.6 c 1.6,1.9 3.7,0.8 5.6,1.2 1.8,1.1 2.6,2.4 1.1,4.3 -0.4,0.4 -0.8,0.7 -1.1,1.1 -2.6,0.4 -5.2,0.8 -7.8,1.2 -3.2,1.3 -4.5,-0.2 -4.5,-3.2 -0.1,-3.4 2.4,-5 6.7,-4.6 z"
       id="path553"
       style="display:inline;fill:#b3b3b3" /><path
       class="st80"
       d="m 837.6,128 c 0.2,-1.6 -0.4,-2.9 -1.1,-4.3 1.9,0 3.8,0 5.7,0 0,3.1 -1.8,4.4 -4.6,4.3 z"
       id="path555"
       style="display:inline;fill:#b3b3b3" /><path
       class="st80"
       d="m 866.6,98 c -0.3,0.8 -0.7,1.7 -1,2.5 -0.1,-1 -0.2,-2 -1.2,-2.5 0.4,-1.5 0.9,-3 1.5,-4.9 1.2,1.9 0.5,3.5 0.7,4.9 z"
       id="path557"
       style="display:inline;fill:#b3b3b3" /><path
       class="st80"
       d="m 859.9,104.7 c 0.4,-2.3 1.1,-4.4 3.3,-5.6 -0.3,2.4 -1,4.5 -3.3,5.6 z"
       id="path559"
       style="display:inline;fill:#b3b3b3" /><path
       class="st80"
       d="m 847.7,82.4 c -0.8,-1.8 -1.6,-3.6 -2.3,-5.5 -0.6,-2.4 -0.3,-4.4 2.5,-5.2 2.8,0.8 0.1,-3 2.2,-2.7 0.3,0.8 0.6,1.5 1,2.3 -0.2,4 0.4,8.2 -3.4,11.1 z"
       id="path561"
       style="display:inline;fill:#b3b3b3" /><path
       class="st80"
       d="m 839.7,93.6 c -0.2,1.2 -1,2.9 1.4,1.6 2.2,-1.2 4.3,-2.6 6.5,-3.9 1.9,3.2 0.9,6.7 1.1,10.1 -0.4,0 -0.7,0 -1.1,0 -7.8,-1 -15.5,-2.6 -23.5,-2.8 -2.2,-0.1 -2.3,-2.5 -1.8,-4.4 0.3,-0.6 0.7,-1.1 1.4,-1.4 5.4,-1 10.8,-2.1 16,0.8 z"
       id="path563"
       style="display:inline;fill:#b3b3b3" /><path
       class="st80"
       d="m 823,94.6 c -0.2,5.5 5.1,3.3 6.2,3 6.8,-1.4 12.4,1.6 18.4,3.7 -0.4,3 -0.7,6 -1.1,8.9 -0.1,1.2 0.1,2.5 -1.1,3.4 -0.1,-0.3 -0.2,-0.7 -0.2,-1 -5.1,-6 -11.8,-7.2 -19.1,-6.1 -2.4,0.3 -4.8,0.9 -6.3,-1.9 0,-3.6 -0.9,-7.6 3.2,-10 z"
       id="path565"
       style="display:inline;fill:#b3b3b3" /><path
       class="st80"
       d="m 805.2,134.9 c -2.2,0 -4.5,0 -6.7,0 -3.3,-0.4 -3.1,-3.2 -3.5,-5.4 -0.6,-3.4 0.1,-6.8 1.2,-9.9 1.3,-3.7 1.7,-7.2 0.3,-10.8 6.2,-1.7 12.7,-1.9 19.1,-3 5.4,1.1 2.9,3.6 0.7,5.5 -7.2,6.1 -8.6,13.8 -6.6,22.6 -1.2,1.4 -2.9,0.8 -4.5,1 z"
       id="path567"
       style="display:inline;fill:#b3b3b3" /><path
       class="st80"
       d="m 844.3,112.5 c -1.5,0.7 -3,1.5 -4.5,2.2 -1.6,1.1 -3.2,0.2 -4.8,0 -13,-1.9 -20,5.3 -17.4,17.9 -0.4,0.4 -0.8,0.7 -1.2,1.1 -1.9,0 -3.7,0 -5.6,0 -4,-8.9 -0.3,-18.8 9,-24.7 7.3,-4.5 18.6,-2.9 24.5,3.5 z"
       id="path569"
       style="display:inline;fill:#b3b3b3" /><path
       class="st80"
       d="m 844.3,112.5 c -6,-3 -11.9,-5.8 -18.9,-3.9 -8.3,2.2 -14.5,9.9 -14.5,18.4 0,2.2 0,4.5 0,6.7 -0.4,0 -0.7,0.1 -1.1,0.1 -2.3,-0.3 -2.3,-1.9 -2.3,-3.7 -0.3,-8.2 1.1,-15.7 8.9,-20.5 0.8,-0.5 3.4,-1.7 0,-2.6 0.5,-2.7 2.4,-2.7 4.4,-2.3 1.5,1.9 3.3,0.8 5.1,0.5 6,-1 11.8,-0.6 17,3.1 1.6,1.1 3,2.2 2.5,4.5 -0.4,-0.2 -0.8,-0.3 -1.1,-0.3 z"
       id="path571"
       style="display:inline;fill:#b3b3b3" /><path
       class="st80"
       d="m 817.6,132.7 c -4.4,-2.8 -2.7,-7 -1.4,-10.1 4,-9.1 10.9,-11.8 20.4,-8.7 1.1,0.3 2.1,0.6 3.2,0.9 -1.5,1.5 -3.6,1.8 -5.5,2.3 -1.7,1.3 -3.8,1.1 -5.7,1.5 -6,1.2 -8.6,6.8 -5.8,12.3 0.1,0.2 0.2,0.5 0.3,0.7 -1.6,1.6 -3.6,0.9 -5.5,1.1 z"
       id="path573"
       style="display:inline;fill:#b3b3b3" /><path
       class="st80"
       d="m 830.9,122.6 c -2.7,0.6 -5.4,1.2 -5.6,4.8 -0.1,2.5 1.2,3.2 3.3,3 -0.4,0.4 -0.7,0.7 -1.1,1.1 -1.5,0 -3,0.1 -4.4,0.1 0,0 -0.1,-0.2 -0.1,-0.2 -2.5,-3.5 -1.3,-6.6 1.3,-9.3 2.1,-2.2 4.4,-4 7.6,-1.7 0.1,0.9 -0.1,1.7 -1,2.2 z"
       id="path575"
       style="display:inline;fill:#b3b3b3" /><path
       class="st80"
       d="m 796.3,109.3 c 3.6,1.1 4.7,2.2 2.7,6.7 -2.5,5.8 -4.9,12.5 -0.5,18.8 -3.1,2.2 -6.7,0.7 -10,1.1 0,-0.3 0,-0.7 0,-1 -0.1,-1.1 -1.1,-1.9 -1.2,-3 -0.7,-8.3 -0.4,-16.4 5.5,-23.2 1.3,-0.5 2.5,-0.5 3.5,0.6 z"
       id="path577"
       style="display:inline;fill:#b3b3b3" /><path
       class="st80"
       d="m 779.4,109.5 c -6.7,-6.2 -10.6,-14.1 -13.4,-22.6 0.4,-1.1 0.8,-2.3 1.2,-3.4 4.7,-4.6 5.6,-4.7 8.7,-0.9 0.7,7.7 3.2,14.9 6.4,21.9 0.1,2.3 -0.6,4.1 -2.9,5 z"
       id="path579"
       style="display:inline;fill:#b3b3b3" /><path
       class="st80"
       d="m 748.4,71.1 c 1.1,-1.8 2.3,-3.6 3.4,-5.4 1.5,-0.5 2.6,0.3 3.3,1.3 4.2,5.5 9.7,8.9 16.6,10.1 1.8,0.3 3.6,1 4.2,3.1 0.1,0.9 -0.1,1.7 -0.9,2.3 -3.1,-4.1 -5,1.5 -7.7,0.9 -7.9,-1.7 -13.3,-7.1 -18.9,-12.3 z"
       id="path581"
       style="display:inline;fill:#b3b3b3" /><path
       class="st80"
       d="m 757.3,48.9 c -1.1,0.7 -2.2,1.5 -3.4,2.2 -2.3,-3 0.2,-5.9 0,-8.9 5.1,-7.6 11.2,-13.3 21.3,-13.5 9.4,-0.2 16.3,3.4 21.1,11.3 -1.1,0.7 -2.2,1.5 -3.3,2.2 -2,-0.3 -3.1,-1.9 -4.5,-3.1 -10.3,-9 -22.5,-6.7 -28.6,5.4 -0.8,1.6 -1.7,3 -2.6,4.4 z"
       id="path583"
       style="display:inline;fill:#b3b3b3" /><path
       class="st80"
       d="m 825.3,54.5 c 0,-1.8 -0.1,-3.6 -0.1,-5.4 0.4,-0.4 0.8,-0.8 1.3,-1.2 1.2,1.4 2.7,2 4.5,2.2 1.9,1.8 4.2,2.8 6.7,3.4 0.5,0.9 1.3,1.1 2.2,1.1 0.8,0.7 1.6,1.5 2.5,2.2 0,2.2 -0.1,4.5 -0.1,6.7 -1.9,0.9 -3.3,-0.5 -4.9,-1.1 -1.7,-0.9 -3,-2.4 -4.7,-3.3 -1.7,-0.9 -3.6,-1.4 -5.4,-2 -0.7,-0.2 -1.4,-0.6 -1.9,-1.1 -0.5,-0.6 -0.5,-1.1 -0.1,-1.5 z"
       id="path585"
       style="display:inline;fill:#b3b3b3" /><path
       class="st80"
       d="m 777.3,129.3 c -7.5,-2.8 -13.9,-7.2 -19,-13.3 -4,-4.5 -6,-9.7 -5.5,-15.8 1,-1.7 1.1,-3.6 1,-5.5 0.5,-0.8 1.3,-1.1 2.2,-1 5.3,9.7 14.5,14.7 23.6,19.8 1.2,5.6 -0.1,10.7 -2.3,15.8 z"
       id="path587"
       style="display:inline;fill:#b3b3b3" /><path
       class="st80"
       d="m 752.8,100.2 c 1.3,5.4 3.2,10.7 5.5,15.8 -4.8,-4.3 -9,-9.1 -12.4,-14.5 1.5,-0.1 2.8,0.1 4.1,1 3.1,2.1 2.6,-0.7 2.8,-2.3 z"
       id="path589"
       style="display:inline;fill:#b3b3b3" /><path
       class="st80"
       d="m 832,120.4 c -7,0.6 -8.9,2.9 -8.9,11.1 -2.3,0.3 -3.2,-0.7 -3.4,-3.1 -0.4,-6 4.1,-11.2 10.1,-11.3 1.5,0 3,0 4.4,0 -0.7,1 -1.4,2.1 -2.2,3.3 z"
       id="path591"
       style="display:inline;fill:#b3b3b3" /><path
       class="st80"
       d="m 840.7,86.9 c 0,0.4 0,0.8 0,1.2 -0.4,0.8 -0.4,1.8 -1.2,2.4 -3.7,2.9 -13.6,1.6 -16.3,-2.1 -0.1,-1.1 0.1,-2.1 0.8,-3 5.8,-2.2 11.4,-1.4 16.7,1.5 z"
       id="path593"
       style="display:inline;fill:#b3b3b3" /><path
       class="st80"
       d="m 824.2,87.9 c 2.9,3.3 12.6,3.4 16.6,0.2 0.4,2 -0.7,3.7 -1,5.5 -5.5,0 -11,0 -16.5,0 -1.7,-2.2 -2.5,-4.3 0.9,-5.7 z"
       id="path595"
       style="display:inline;fill:#b3b3b3" /><path
       class="st80"
       d="m 842.2,74.7 c 0,0.4 -0.2,0.7 -0.3,1 -0.4,1 -0.9,1.7 -1.9,2.1 -4.9,0.8 -9.7,1.3 -14.5,-0.5 -1,-1 -1.2,-2.2 -0.7,-3.5 4.2,-3.9 8.9,-0.6 13.3,-0.9 0.5,-0.1 1.1,-0.1 1.7,-0.1 1.1,0.2 2,0.7 2.4,1.9 z"
       id="path597"
       style="display:inline;fill:#b3b3b3" /><path
       class="st80"
       d="m 840.7,86.9 c -5.5,-0.3 -10.9,-1.7 -16.4,-1.1 -2.2,-2.7 -2.3,-5.4 0.2,-8 1.6,0.1 1.8,1.4 2.4,2.5 1.3,2.7 3.8,1.6 5.9,1.8 2.9,0.2 5.9,-0.1 8,2.6 0,0.7 0,1.4 -0.1,2.2 z"
       id="path599"
       style="display:inline;fill:#b3b3b3" /><path
       class="st80"
       d="m 842.2,74.7 c -0.8,-0.4 -1.6,-0.8 -2.4,-1.3 0.2,-2.9 0.4,-5.9 4.2,-6.5 1.4,1.9 3.6,3.1 4.5,5.5 -2.7,0.4 -1.9,3.2 -3.2,4.5 -1,-0.7 -2,-1.5 -3.1,-2.2 z"
       id="path601"
       style="display:inline;fill:#b3b3b3" /><path
       class="st80"
       d="m 840.9,84.6 c -3.7,-1.4 -7.5,-1.1 -11.3,-1.1 -1.7,0 -3.9,0.5 -4.1,-2.3 4.9,-2.6 9.9,-1.9 15,-0.6 0.2,0.2 0.5,0.5 0.7,0.8 -0.2,1.1 -0.3,2.2 -0.3,3.2 z"
       id="path603"
       style="display:inline;fill:#b3b3b3" /><path
       class="st80"
       d="m 840.9,76.8 c 0.3,-0.4 0.7,-0.7 1,-1.1 0.1,1.9 0.5,3.9 -0.8,5.7 0,0 -0.2,-0.2 -0.2,-0.2 -1.2,-1.5 -1.1,-2.9 0,-4.4 z"
       id="path605"
       style="display:inline;fill:#b3b3b3" /><path
       class="st80"
       d="m 844,66.9 c -2.5,1.5 -2.1,4.8 -4.2,6.5 0,0 0,0.1 0,0.1 -2.6,0 -4.9,-0.5 -6,-3.3 1.1,-3 1.3,-6.4 3.7,-8.9 1.5,0.7 3,1.4 4.5,2.2 0.7,1.1 1.4,2.3 2,3.4 z"
       id="path607"
       style="display:inline;fill:#b3b3b3" /><path
       class="st80"
       d="m 789.6,108.3 c 1.1,0.3 2.2,0.6 3.3,1 -4.3,7.6 -4.8,16 -4.5,24.4 -0.9,0.1 -1.7,0 -2.3,-0.8 -3.1,-8.8 -1.4,-16.9 3.5,-24.6 z"
       id="path609"
       style="display:inline;fill:#b3b3b3" /><path
       class="st80"
       d="m 793,72.4 c -5.8,3 -12.3,4.2 -17.9,7.8 -3,-2.9 -7.2,-1.9 -10.7,-3.6 -5.3,-2.5 -8.6,-7.1 -12.7,-10.9 1.1,-1.5 2.1,-3 3.2,-4.5 2.6,-0.6 3.5,1.5 4.8,3 11,12.5 28.2,10.2 35.3,-4.7 0.9,-1.8 1.5,-3.8 3.4,-4.9 0.4,0 0.8,0 1.1,0 2.3,2.9 0.6,5.5 -0.4,8.2 -1.2,3.7 -4.4,6.2 -6.1,9.6 z"
       id="path611"
       style="display:inline;fill:#b3b3b3" /><path
       class="st80"
       d="m 756.2,59 c 1.1,-1.5 2.2,-3 3.3,-4.5 2.3,-0.6 3.3,1.2 4.3,2.6 6.8,10.1 15.4,10.3 23.3,1.8 0.8,-0.8 1.5,-1.6 2.5,-2.2 1.7,-1.1 3.6,-1.3 5.6,-1.1 0,7.6 -7.3,14.9 -15.9,16.2 -11.1,1.7 -17.7,-4.5 -23.1,-12.8 z"
       id="path613"
       style="display:inline;fill:#b3b3b3" /><path
       class="st80"
       d="m 757.3,48.9 c 1.5,-9.6 7.4,-15.1 16.6,-16.4 8.2,-1.1 14.4,3.2 19.1,9.8 -0.8,0.7 -1.5,1.4 -2.3,2.2 -1.8,1.3 -3.1,0 -4.4,-0.9 -8.3,-5.9 -11.3,-6 -19.9,-0.4 -0.8,0.5 -1.7,0.8 -2.4,1.4 -2.3,1.4 -4.5,2.8 -6.7,4.3 z"
       id="path615"
       style="display:inline;fill:#b3b3b3" /><path
       class="st80"
       d="m 762.9,50.1 c 0.4,-2.3 4,-2.7 3.3,-5.6 3.2,-4.6 8.1,-5.2 12.9,-4.3 3.8,0.7 7,3.1 7.2,7.7 -0.4,0.4 -0.7,0.7 -1.1,1.1 -2.3,1.5 -3.8,-0.4 -5.4,-1.5 -3.2,-2.1 -5.9,-1.6 -8.3,1.2 -2.6,3 -1,5.5 1.4,7.6 1.5,1.4 2.6,3 3.4,4.9 2.8,-1.5 5.7,-2.7 8.9,-3.3 -0.3,4.7 -3.9,5.3 -7.4,5.7 -5.2,0.6 -9.5,-1.1 -12.3,-5.7 -1.4,-2.4 -1.9,-5.2 -2.6,-7.8 z"
       id="path617"
       style="display:inline;fill:#b3b3b3" /><path
       class="st80"
       d="m 756.2,59 c 1.4,0 2.4,0.7 3.1,1.9 9.4,15.8 30.7,12 35.9,-5.3 1.1,-0.4 2.2,-0.7 3.3,-1.1 -2.8,7.3 -5.5,14.4 -14.1,17.2 -10.4,3.4 -18.8,2.1 -26.3,-7.6 -0.9,-1.1 -2.1,-2 -3.2,-3 0.5,-0.6 0.9,-1.4 1.3,-2.1 z"
       id="path619"
       style="display:inline;fill:#b3b3b3" /><path
       class="st80"
       d="m 762.9,50.1 c 2.8,0.2 2.2,2.6 2.6,4.2 1.1,4.1 3.5,7.1 7.6,7.9 4.6,0.8 9.3,0.7 12.1,-4.2 1.5,-0.4 3,-0.8 4.5,-1.1 -5.2,11.1 -19.2,14.4 -27,0.8 -0.7,-1.2 -2.1,-2 -3.1,-3 1,-1.7 2.1,-3.1 3.3,-4.6 z"
       id="path621"
       style="display:inline;fill:#b3b3b3" /><path
       class="st80"
       d="m 786.3,47.9 c -6.6,-8.4 -7.6,-8.5 -20.1,-3.4 -0.7,0 -1.5,0.1 -2.2,0.1 6.9,-8.9 14.7,-9.6 23,-2.1 1.1,1 2.1,2.1 3.8,2.1 -0.9,1.9 -2.9,2.3 -4.5,3.3 z"
       id="path623"
       style="display:inline;fill:#b3b3b3" /><path
       class="st80"
       d="m 825.1,69.2 c -5.9,0 -11.8,-0.1 -17.7,-0.1 -3.2,1 -3.4,-1.2 -3,-3.2 0.9,-4.4 1.7,-9 5.2,-12.4 1.1,0 2.2,0 3.3,0 2.3,2.9 1.2,6 0.5,9 -0.4,2 -0.8,3.8 2.2,3.8 1.7,0 3.4,0 5.1,0 1.5,0 3,0.1 4.3,1.1 0.6,0.7 0.6,1.2 0.1,1.8 z"
       id="path625"
       style="display:inline;fill:#b3b3b3" /><path
       class="st80"
       d="m 776.2,61.2 c -1.6,-1.4 -3.3,-2.8 -4.9,-4.4 -2.8,-2.8 -3.9,-5.8 -1,-9.2 2.9,-3.3 6.3,-4.3 10.2,-1.5 1.5,1.1 2.5,2.8 4.6,2.7 -0.8,1.5 -1.9,2.6 -3.3,3.4 -1.3,0.5 -2,-0.5 -2.8,-1.2 -1.5,-1.3 -3.2,-2.4 -4.7,-0.4 -1.3,1.7 -0.1,3 1.2,4.2 0.9,0.8 2.4,1.3 1.8,3 -0.3,1.2 -0.7,2.3 -1.1,3.4 z"
       id="path627"
       style="display:inline;fill:#b3b3b3" /><path
       class="st80"
       d="m 793,72.4 c -3.5,-1.4 -0.2,-2.4 0.4,-3.1 3.8,-4.2 6.6,-8.8 6.3,-14.7 2.2,-0.4 4.3,-1.5 6.7,-1.1 -1.2,5.8 -4.2,10.9 -5.5,16.7 -2.4,1.7 -5.4,1.1 -7.9,2.2 z"
       id="path629"
       style="display:inline;fill:#b3b3b3" /><path
       class="st80"
       d="m 800.9,70.2 c -0.4,-0.1 -0.7,-0.2 -1.1,-0.3 1.9,-5.6 2.4,-11.7 6.5,-16.4 1.1,0 2.3,0 3.4,0 -1.2,3.8 -2.4,7.6 -3.6,11.4 -0.6,1.8 -1.7,3.6 1.4,4.1 -2,1.9 -4.4,0.8 -6.6,1.2 z"
       id="path631"
       style="display:inline;fill:#b3b3b3" /><path
       class="st80"
       d="m 820.9,67.9 c -1.9,0 -3.7,0 -5.6,0 -1.8,-4.4 0.4,-8.3 1.4,-12.3 0.5,-2 2.5,-1.9 4.2,-1 1.5,0 2.9,0 4.4,0 0.2,0.3 0.3,0.7 0.3,1 -2.1,3.9 -1.2,8.9 -4.7,12.3 z"
       id="path633"
       style="display:inline;fill:#b3b3b3" /><path
       class="st80"
       d="m 820.9,54.5 c -1.8,0 -3.1,0.3 -3.4,2.6 -0.5,3.6 -1.4,7.2 -2.2,10.8 -3.8,0.4 -5.3,-0.8 -3.5,-4.6 1.5,-3.1 1.3,-6.4 1.2,-9.7 2.7,0.1 5.5,-1 7.9,0.9 z"
       id="path635"
       style="display:inline;fill:#b3b3b3" /><path
       class="st80"
       d="m 777.3,57.9 c -1,-0.7 -2.1,-1.4 -3.1,-2.2 -2.2,-1.8 -3.6,-3.9 -1.1,-6.4 2.3,-2.3 4.6,-1.8 6.6,0.5 0.7,0.8 1.4,1.7 2,2.5 -1,2.2 -1.9,4.5 -4.4,5.6 z"
       id="path637"
       style="display:inline;fill:#b3b3b3" /><path
       class="st80"
       d="m 777.3,129.3 c -0.4,-5.4 1.1,-10.6 2.3,-15.8 0.7,0 1.3,0.1 2,0.1 0.6,-0.4 1.2,-0.3 1.7,0.2 1,5.2 -0.3,10.2 -1.7,15.2 -0.2,0.9 -0.9,1.6 -2.1,1.3 -0.9,0.1 -1.7,-0.2 -2.2,-1 z"
       id="path639"
       style="display:inline;fill:#b3b3b3" /><path
       class="st80"
       d="m 782.9,113.7 c -0.4,0 -0.9,0 -1.3,-0.1 0.3,-1.9 -1.5,-2.7 -2.2,-4.1 0.8,-1.5 1.5,-3.1 2.3,-4.6 1.6,-0.1 2.1,1.7 3.4,2.2 1.8,2.4 0.6,4.4 -0.7,6.5 -0.4,0.4 -0.9,0.5 -1.5,0.1 z"
       id="path641"
       style="display:inline;fill:#b3b3b3" /><path
       class="st80"
       d="m 825.1,69.2 c 0.1,-0.4 0.1,-0.8 0.2,-1.2 -0.2,-4.2 0.1,-8.3 2.2,-12.1 1.9,0.7 3.7,1.5 5.6,2.2 1.5,4.3 0.3,8 -2.3,11.5 -1.9,1 -3.8,0.9 -5.5,-0.5 z"
       id="path643"
       style="display:inline;fill:#b3b3b3" /><path
       class="st80"
       d="m 827.5,55.8 c 0.1,4.2 0.1,8.4 -2.2,12.1 -1.5,0 -2.9,0 -4.4,-0.1 0.7,-3.1 1.5,-6.3 2.1,-9.4 0.3,-1.6 0.8,-2.7 2.6,-2.9 0.6,0.1 1.3,0.2 1.9,0.3 z"
       id="path645"
       style="display:inline;fill:#b3b3b3" /><path
       class="st80"
       d="m 830.9,69.1 c 0.7,-3.7 1.5,-7.4 2.2,-11.1 1.5,1.1 3,2.2 4.5,3.3 -0.9,3.1 -0.1,6.7 -3.4,8.9 -1.5,0.9 -2.8,1.2 -3.3,-1.1 z"
       id="path647"
       style="display:inline;fill:#b3b3b3" /><path
       class="st80"
       d="m 789.6,108.3 c -2.5,8 -4.1,16.1 -3.4,24.6 -1.2,-0.2 -2.5,-0.1 -3.3,-1.2 -2.3,-5 0.6,-9.7 0.7,-14.6 2.2,-2.6 1.1,-7.1 4.9,-9 0.4,0.1 0.7,0.1 1.1,0.2 z"
       id="path649"
       style="display:inline;fill:#b3b3b3" /><path
       class="st80"
       d="m 785.2,117 c -1.7,4.7 -1.8,9.7 -2.3,14.6 -1.2,-0.1 -2.5,-0.2 -3.3,-1.3 2.6,-5.3 1.9,-11.2 3.3,-16.7 0.4,0 0.8,0 1.1,0 1.5,0.8 2.2,1.8 1.2,3.4 z"
       id="path651"
       style="display:inline;fill:#b3b3b3" /><path
       class="st80"
       d="m 825.2,77.8 c -0.1,-0.3 0,-0.6 0.1,-0.9 5.2,0 10.4,0 15.6,0 0,1.5 0,2.9 -0.1,4.4 -5.2,0 -10.3,0 -15.5,0.1 0,-1.3 0,-2.5 -0.1,-3.6 z"
       id="path653"
       style="display:inline;fill:#b3b3b3" /><path
       class="st80"
       d="m 830.9,69.1 c 0.9,1.2 2.1,1 3.3,1 1.9,1.1 3.7,2.3 5.6,3.4 -4.8,2.6 -9.6,-1.4 -14.4,-0.1 0,-1.5 0,-3 -0.1,-4.5 1.9,0.2 3.7,0.2 5.6,0.2 z"
       id="path655"
       style="display:inline;fill:#b3b3b3" /><path
       class="st80"
       d="m 785.2,117 c -0.4,-1.1 -0.7,-2.2 -1.1,-3.3 0.4,-2.2 0.7,-4.4 1.1,-6.6 1.3,-0.3 2.3,0.4 3.4,1 -1.2,3 -2.3,6 -3.4,8.9 z"
       id="path657"
       style="display:inline;fill:#b3b3b3" /></g><g
     id="layer2"
     style="display:inline;fill:#ffffff;fill-opacity:0.33725491"><polygon
       style="fill:#ffffff;fill-opacity:0.33725491;stroke-width:0.7959215"
       id="polygon7"
       points="128.9,98.3 178.4,98.3 138.1,144.4 17.8,144.4 80.1,98.4 "
       class="st0"
       transform="matrix(0.17211031,0,0,0.17211031,-1.8845635,-2.8527292)" /></g><g
     id="layer1"
     style="display:inline;fill:#ffffff"><g
       id="g5389"
       transform="matrix(1.1517049,0,0,1.1517049,1.1790003,-2.1858017)"
       style="fill:#ffffff;stroke-width:0.7959215"><path
         class="st1"
         d="M 18.874221,6.6388538 18.291407,6.3100867 C 17.798256,6.0261514 17.618929,5.3835611 17.902864,4.8754665 L 18.321295,4.1581564 C 18.60523,3.6650057 19.24782,3.4856782 19.755915,3.7696135 l 0.582815,0.3287671 c 0.49315,0.2839352 0.672478,0.9265255 0.388543,1.4346201 l -0.418431,0.7173101 c -0.29888,0.5080947 -0.94147,0.6724782 -1.434621,0.388543 z"
         id="path9"
         style="fill:#ffffff;stroke-width:0.7959215" /><path
         class="st1"
         d="M 13.449564,18.339974 11.880448,17.518057 C 11.551681,17.353673 11.432129,16.935242 11.596513,16.606475 L 16.30386,7.6400991 C 16.468244,7.311332 16.886675,7.1917803 17.215442,7.3561639 l 1.569116,0.8219178 c 0.328767,0.1643835 0.448318,0.5828144 0.283935,0.9115815 l -4.707347,8.9663758 c -0.164384,0.328767 -0.582815,0.448319 -0.911582,0.283935 z"
         id="path11"
         style="fill:#ffffff;stroke-width:0.7959215" /></g></g></svg>